<?xml version="1.0" standalone="no"?>
<!DOCTYPE svg PUBLIC "-//W3C//DTD SVG 20010904//EN"
 "http://www.w3.org/TR/2001/REC-SVG-20010904/DTD/svg10.dtd">
<svg version="1.0" xmlns="http://www.w3.org/2000/svg"
 width="2048.000000pt" height="2048.000000pt" viewBox="0 0 2048.000000 2048.000000"
 preserveAspectRatio="xMidYMid meet">

<g transform="translate(0.000000,2048.000000) scale(0.100000,-0.100000)"
fill="#000000" stroke="none">
<path fill="black" d="M0 10240 l0 -10240 10240 0 10240 0 0 10240 0 10240 -10240 0 -10240
0 0 -10240z m7611 4692 c83 -28 178 -90 224 -147 30 -36 411 -713 1670 -2970
123 -220 334 -598 469 -840 135 -242 248 -444 250 -450 2 -7 7 -7 14 0 5 6
225 393 487 860 263 468 581 1035 708 1260 126 226 362 646 525 935 162 289
376 670 476 848 189 338 228 392 323 452 26 17 80 41 118 53 70 22 71 22 925
22 l855 0 62 -29 c69 -32 137 -97 175 -167 l23 -44 3 -4459 c1 -2891 -1 -4471
-8 -4495 -25 -92 -112 -180 -215 -218 -47 -17 -109 -18 -930 -21 -547 -2 -904
1 -943 7 -117 18 -211 88 -263 196 l-29 60 0 2483 c0 1365 -3 2482 -7 2482 -5
0 -325 -582 -713 -1293 -387 -710 -726 -1330 -753 -1376 -56 -96 -150 -193
-223 -233 -105 -57 -133 -59 -622 -56 -441 3 -448 3 -504 26 -32 13 -85 44
-119 69 -107 81 -162 160 -341 491 -91 169 -269 498 -396 732 -126 234 -362
670 -524 970 -162 300 -310 574 -329 610 l-34 64 -5 -2484 c-5 -2456 -5 -2486
-25 -2534 -27 -67 -95 -140 -158 -170 -29 -14 -83 -30 -122 -36 -94 -13 -1706
-13 -1800 0 -135 20 -246 109 -280 225 -13 44 -15 591 -13 4500 l3 4450 22 47
c43 93 140 173 240 197 22 5 405 9 878 8 l840 -2 66 -23z"/>
</g>
</svg>
